<svg xmlns="http://www.w3.org/2000/svg" xmlns:xlink="http://www.w3.org/1999/xlink" viewBox="0 0 96.65 2.09"><defs><style>.cls-1{fill:url(#New_Gradient_Swatch_2);}</style><linearGradient id="New_Gradient_Swatch_2" x1="381.75" y1="-1686.07" x2="476.65" y2="-1686.07" gradientTransform="translate(-380.81 1687.24)" gradientUnits="userSpaceOnUse"><stop offset="0" stop-color="#52331a"/><stop offset="0.12" stop-color="#ad9985"/><stop offset="0.16" stop-color="#9a836f"/><stop offset="0.2" stop-color="#8f7762"/><stop offset="0.24" stop-color="#98826d"/><stop offset="0.26" stop-color="#9b8570"/><stop offset="0.33" stop-color="#b9a590"/><stop offset="0.43" stop-color="#ad947b"/><stop offset="0.56" stop-color="#b89d81"/><stop offset="0.67" stop-color="#dec6ac"/><stop offset="0.75" stop-color="#fde6ce"/><stop offset="0.77" stop-color="#ebd5be"/><stop offset="0.88" stop-color="#a88c71"/><stop offset="0.96" stop-color="#765739"/><stop offset="1" stop-color="#634223"/></linearGradient></defs><g id="Design"><path class="cls-1" d="M48.39,1.44c-6.17,0-13.11,0-20-.08C18.41,1.29,8.52,1.2,1.06,1.2c-.15,0-.16-.06,0-.06,7.46,0,17.35-.08,27.3-.15C35.28.94,42.22.9,48.39.9s13.11,0,20,.09c9.94.07,19.84.15,27.3.15.16,0,.16.06,0,.06-7.46,0-17.36.09-27.3.16C61.5,1.4,54.56,1.44,48.39,1.44Z"/></g></svg>